<svg width="48" height="41" fill="none" xmlns="http://www.w3.org/2000/svg"><path fill-rule="evenodd" clip-rule="evenodd" d="M35.1 14.8c.2-.5 0-1-.8-1h-2.6c-.7 0-1 .4-1.1.8 0 0-1.4 3.2-3.3 5.3-.6.6-.9.8-1.2.8-.2 0-.4-.2-.4-.8v-5.1c0-.7-.2-1-.8-1h-4c-.5 0-.8.4-.8.6 0 .7 1 .8 1 2.6v3.8c0 .8 0 1-.4 1-.9 0-3-3.3-4.3-7-.3-.7-.5-1-1.2-1h-2.6c-.8 0-1 .4-1 .8 0 .7 1 4 4.2 8.5 2.2 3.1 5.2 4.8 8 4.8 1.7 0 1.9-.4 1.9-1v-2.4c0-.7.2-.8.7-.8.4 0 1 .1 2.6 1.6 1.8 1.8 2 2.6 3 2.6h2.7c.7 0 1.1-.4 1-1.1-.3-.8-1.2-1.8-2.3-3-.6-.8-1.5-1.5-1.8-2-.4-.4-.3-.6 0-1 0 0 3.2-4.5 3.5-6Z" fill="#83B3D3"/></svg>